<svg xmlns="http://www.w3.org/2000/svg" viewBox="0 0 64 64" width="64" height="64" fill="currentColor" role="img" aria-label="Footprint">
  <title>Footprint</title>
  <!-- The display mark. Same silhouette drawn as a depth contour, the way a
       sounding is drawn on a nautical chart — the Harbor motif. Use at 32px and
       above; below that the stroke closes up and the solid mark is correct. -->
  <g fill="none" stroke="currentColor" stroke-width="3.1" stroke-linejoin="round" stroke-linecap="round">
    <path d="M21.5 27.5 C21.5 21.5 26.8 18.2 32.4 18.2 C39 18.2 44 22.3 44 28.2
             C44 33.3 41.7 37 39.8 41.2 C38.4 44.4 33.8 45.3 30.6 43.5
             C26.9 41.2 25 38.4 23.4 35.2 C22.1 32.4 21.5 30.2 21.5 27.5 Z"/>
    <path d="M28.8 49.9 C32.5 48.5 36.7 50.4 37.4 54.1 C38.1 57.8 34.8 60.6 31.4 60.1
             C28.1 59.6 26.3 56.6 26.8 53.6 C27.1 51.8 27.8 50.5 28.8 49.9 Z"/>
  </g>
  <circle cx="18.6" cy="14.2" r="4.0"/>
  <circle cx="27.2" cy="9.8"  r="3.1"/>
  <circle cx="34.6" cy="9.0"  r="2.8"/>
  <circle cx="41.0" cy="10.6" r="2.5"/>
  <circle cx="46.0" cy="14.0" r="2.1"/>
</svg>
